# Wavefront OBJ file automatically generated by Tiled2Unity

# Vertices (Count = 466)
v -22.528 -0.512 0
v -23.04 -0.512 0
v -23.04 0 0
v -22.528 0 0
v -22.528 -1.024 0
v -23.04 -1.024 0
v -22.528 -1.536 0
v -23.04 -1.536 0
v -22.528 -2.048 0
v -23.04 -2.048 0
v -22.528 -2.56 0
v -23.04 -2.56 0
v -22.528 -3.072 0
v -23.04 -3.072 0
v 0 -3.584 0
v -0.512 -3.584 0
v -0.512 -3.072 0
v 0 -3.072 0
v -22.528 -3.584 0
v -23.04 -3.584 0
v 0 -4.096 0
v -0.512 -4.096 0
v -22.528 -4.096 0
v -23.04 -4.096 0
v 0 -4.608 0
v -0.512 -4.608 0
v -22.528 -4.608 0
v -23.04 -4.608 0
v 0 -5.12 0
v -0.512 -5.12 0
v -22.528 -5.12 0
v -23.04 -5.12 0
v 0 -5.632 0
v -0.512 -5.632 0
v -20.48 -5.632 0
v -20.992 -5.632 0
v -20.992 -5.12 0
v -20.48 -5.12 0
v -21.504 -5.632 0
v -21.504 -5.12 0
v -22.016 -5.632 0
v -22.016 -5.12 0
v -22.528 -5.632 0
v -23.04 -5.632 0
v -34.816 -5.632 0
v -35.328 -5.632 0
v -35.328 -5.12 0
v -34.816 -5.12 0
v -70.144 -5.632 0
v -70.65601 -5.632 0
v -70.65601 -5.12 0
v -70.144 -5.12 0
v -71.16801 -5.632 0
v -71.16801 -5.12 0
v -71.68 -5.632 0
v -71.68 -5.12 0
v -72.192 -5.632 0
v -72.192 -5.12 0
v 0 -6.144 0
v -0.512 -6.144 0
v -71.16801 -6.144 0
v -71.68 -6.144 0
v -72.192 -6.144 0
v 0 -6.656 0
v -0.512 -6.656 0
v -41.984 -6.656 0
v -42.496 -6.656 0
v -42.496 -6.144 0
v -41.984 -6.144 0
v -43.008 -6.656 0
v -43.008 -6.144 0
v -63.488 -6.656 0
v -64 -6.656 0
v -64 -6.144 0
v -63.488 -6.144 0
v -64.512 -6.656 0
v -64.512 -6.144 0
v -71.16801 -6.656 0
v -71.68 -6.656 0
v -72.192 -6.656 0
v 0 -7.168 0
v -0.512 -7.168 0
v -41.984 -7.168 0
v -42.496 -7.168 0
v -43.008 -7.168 0
v -63.488 -7.168 0
v -64 -7.168 0
v -64.512 -7.168 0
v -71.16801 -7.168 0
v -71.68 -7.168 0
v -72.192 -7.168 0
v 0 -7.68 0
v -0.512 -7.68 0
v -1.024 -7.68 0
v -1.024 -7.168 0
v -1.536 -7.68 0
v -1.536 -7.168 0
v -2.048 -7.68 0
v -2.048 -7.168 0
v -2.56 -7.68 0
v -2.56 -7.168 0
v -3.072 -7.68 0
v -3.072 -7.168 0
v -3.584 -7.68 0
v -3.584 -7.168 0
v -4.096 -7.68 0
v -4.096 -7.168 0
v -4.608 -7.68 0
v -4.608 -7.168 0
v -5.12 -7.68 0
v -5.12 -7.168 0
v -5.632 -7.68 0
v -5.632 -7.168 0
v -6.144 -7.68 0
v -6.144 -7.168 0
v -6.656 -7.68 0
v -6.656 -7.168 0
v -7.168 -7.68 0
v -7.168 -7.168 0
v -7.68 -7.68 0
v -7.68 -7.168 0
v -8.192 -7.68 0
v -8.192 -7.168 0
v -8.704 -7.68 0
v -8.704 -7.168 0
v -9.216001 -7.68 0
v -9.216001 -7.168 0
v -9.728001 -7.68 0
v -9.728001 -7.168 0
v -10.24 -7.68 0
v -10.24 -7.168 0
v -10.752 -7.68 0
v -10.752 -7.168 0
v -11.264 -7.68 0
v -11.264 -7.168 0
v -11.776 -7.68 0
v -11.776 -7.168 0
v -12.288 -7.68 0
v -12.288 -7.168 0
v -12.8 -7.68 0
v -12.8 -7.168 0
v -13.312 -7.68 0
v -13.312 -7.168 0
v -13.824 -7.68 0
v -13.824 -7.168 0
v -14.336 -7.68 0
v -14.336 -7.168 0
v -14.848 -7.68 0
v -14.848 -7.168 0
v -15.36 -7.68 0
v -15.36 -7.168 0
v -15.872 -7.68 0
v -15.872 -7.168 0
v -16.384 -7.68 0
v -16.384 -7.168 0
v -16.896 -7.68 0
v -16.896 -7.168 0
v -17.408 -7.68 0
v -17.408 -7.168 0
v -17.92 -7.68 0
v -17.92 -7.168 0
v -18.432 -7.68 0
v -18.432 -7.168 0
v -18.944 -7.68 0
v -18.944 -7.168 0
v -19.456 -7.68 0
v -19.456 -7.168 0
v -19.968 -7.68 0
v -19.968 -7.168 0
v -20.48 -7.68 0
v -20.48 -7.168 0
v -20.992 -7.68 0
v -20.992 -7.168 0
v -21.504 -7.68 0
v -21.504 -7.168 0
v -22.016 -7.68 0
v -22.016 -7.168 0
v -22.528 -7.68 0
v -22.528 -7.168 0
v -23.04 -7.68 0
v -23.04 -7.168 0
v -23.552 -7.68 0
v -23.552 -7.168 0
v -24.064 -7.68 0
v -24.064 -7.168 0
v -24.576 -7.68 0
v -24.576 -7.168 0
v -25.088 -7.68 0
v -25.088 -7.168 0
v -25.6 -7.68 0
v -25.6 -7.168 0
v -26.112 -7.68 0
v -26.112 -7.168 0
v -26.624 -7.68 0
v -26.624 -7.168 0
v -27.136 -7.68 0
v -27.136 -7.168 0
v -27.648 -7.68 0
v -27.648 -7.168 0
v -28.16 -7.68 0
v -28.16 -7.168 0
v -28.672 -7.68 0
v -28.672 -7.168 0
v -29.184 -7.68 0
v -29.184 -7.168 0
v -29.696 -7.68 0
v -29.696 -7.168 0
v -30.208 -7.68 0
v -30.208 -7.168 0
v -30.72 -7.68 0
v -30.72 -7.168 0
v -31.232 -7.68 0
v -31.232 -7.168 0
v -31.744 -7.68 0
v -31.744 -7.168 0
v -32.256 -7.68 0
v -32.256 -7.168 0
v -32.768 -7.68 0
v -32.768 -7.168 0
v -33.28 -7.68 0
v -33.28 -7.168 0
v -33.792 -7.68 0
v -33.792 -7.168 0
v -34.304 -7.68 0
v -34.304 -7.168 0
v -34.816 -7.68 0
v -34.816 -7.168 0
v -35.328 -7.68 0
v -35.328 -7.168 0
v -35.84 -7.68 0
v -35.84 -7.168 0
v -36.352 -7.68 0
v -36.352 -7.168 0
v -36.864 -7.68 0
v -36.864 -7.168 0
v -37.376 -7.68 0
v -37.376 -7.168 0
v -37.888 -7.68 0
v -37.888 -7.168 0
v -38.4 -7.68 0
v -38.4 -7.168 0
v -38.912 -7.68 0
v -38.912 -7.168 0
v -39.424 -7.68 0
v -39.424 -7.168 0
v -39.936 -7.68 0
v -39.936 -7.168 0
v -40.448 -7.68 0
v -40.448 -7.168 0
v -40.96 -7.68 0
v -40.96 -7.168 0
v -41.472 -7.68 0
v -41.472 -7.168 0
v -41.984 -7.68 0
v -42.496 -7.68 0
v -43.008 -7.68 0
v -43.52 -7.68 0
v -43.52 -7.168 0
v -44.032 -7.68 0
v -44.032 -7.168 0
v -44.544 -7.68 0
v -44.544 -7.168 0
v -45.056 -7.68 0
v -45.056 -7.168 0
v -45.568 -7.68 0
v -45.568 -7.168 0
v -46.08 -7.68 0
v -46.08 -7.168 0
v -46.592 -7.68 0
v -46.592 -7.168 0
v -47.104 -7.68 0
v -47.104 -7.168 0
v -47.616 -7.68 0
v -47.616 -7.168 0
v -48.128 -7.68 0
v -48.128 -7.168 0
v -48.64 -7.68 0
v -48.64 -7.168 0
v -54.784 -7.68 0
v -55.296 -7.68 0
v -55.296 -7.168 0
v -54.784 -7.168 0
v -55.808 -7.68 0
v -55.808 -7.168 0
v -56.32 -7.68 0
v -56.32 -7.168 0
v -56.832 -7.68 0
v -56.832 -7.168 0
v -57.344 -7.68 0
v -57.344 -7.168 0
v -57.856 -7.68 0
v -57.856 -7.168 0
v -58.368 -7.68 0
v -58.368 -7.168 0
v -58.88 -7.68 0
v -58.88 -7.168 0
v -59.392 -7.68 0
v -59.392 -7.168 0
v -59.904 -7.68 0
v -59.904 -7.168 0
v -60.416 -7.68 0
v -60.416 -7.168 0
v -60.928 -7.68 0
v -60.928 -7.168 0
v -61.44 -7.68 0
v -61.44 -7.168 0
v -61.952 -7.68 0
v -61.952 -7.168 0
v -62.464 -7.68 0
v -62.464 -7.168 0
v -62.976 -7.68 0
v -62.976 -7.168 0
v -63.488 -7.68 0
v -64 -7.68 0
v -64.512 -7.68 0
v -65.024 -7.68 0
v -65.024 -7.168 0
v -65.536 -7.68 0
v -65.536 -7.168 0
v -66.048 -7.68 0
v -66.048 -7.168 0
v -66.56001 -7.68 0
v -66.56001 -7.168 0
v -67.07201 -7.68 0
v -67.07201 -7.168 0
v -67.584 -7.68 0
v -67.584 -7.168 0
v -68.096 -7.68 0
v -68.096 -7.168 0
v -68.608 -7.68 0
v -68.608 -7.168 0
v -69.12 -7.68 0
v -69.12 -7.168 0
v -69.632 -7.68 0
v -69.632 -7.168 0
v -70.144 -7.68 0
v -70.144 -7.168 0
v -70.65601 -7.68 0
v -70.65601 -7.168 0
v -71.16801 -7.68 0
v -71.68 -7.68 0
v -72.192 -7.68 0
v -72.704 -7.68 0
v -72.704 -7.168 0
v -73.216 -7.68 0
v -73.216 -7.168 0
v -73.728 -7.68 0
v -73.728 -7.168 0
v -74.24001 -7.68 0
v -74.24001 -7.168 0
v -74.75201 -7.68 0
v -74.75201 -7.168 0
v -75.264 -7.68 0
v -75.264 -7.168 0
v -75.776 -7.68 0
v -75.776 -7.168 0
v -76.288 -7.68 0
v -76.288 -7.168 0
v -76.8 -7.68 0
v -76.8 -7.168 0
v -77.312 -7.68 0
v -77.312 -7.168 0
v -77.82401 -7.68 0
v -77.82401 -7.168 0
v 0 -8.192 0
v -0.512 -8.192 0
v -23.04 -8.192 0
v -23.552 -8.192 0
v -24.064 -8.192 0
v -60.416 -8.192 0
v -60.928 -8.192 0
v -61.44 -8.192 0
v 0 -8.704 0
v -0.512 -8.704 0
v -23.04 -8.704 0
v -23.552 -8.704 0
v -24.064 -8.704 0
v -60.416 -8.704 0
v -60.928 -8.704 0
v -61.44 -8.704 0
v 0 -9.216001 0
v -0.512 -9.216001 0
v -23.04 -9.216001 0
v -23.552 -9.216001 0
v -24.064 -9.216001 0
v 0 -9.728001 0
v -0.512 -9.728001 0
v -23.04 -9.728001 0
v -23.552 -9.728001 0
v -24.064 -9.728001 0
v -34.816 -9.728001 0
v -35.328 -9.728001 0
v -35.328 -9.216001 0
v -34.816 -9.216001 0
v 0 -10.24 0
v -0.512 -10.24 0
v -23.04 -10.24 0
v -23.552 -10.24 0
v -24.064 -10.24 0
v 0 -10.752 0
v -0.512 -10.752 0
v -23.04 -10.752 0
v -23.552 -10.752 0
v -24.064 -10.752 0
v 0 -11.264 0
v -0.512 -11.264 0
v 0 -11.776 0
v -0.512 -11.776 0
v -78.33601 -7.68 0
v -78.33601 -7.168 0
v -78.84801 -7.68 0
v -78.84801 -7.168 0
v -79.36 -7.68 0
v -79.36 -7.168 0
v -79.872 -7.68 0
v -79.872 -7.168 0
v -80.384 -7.68 0
v -80.384 -7.168 0
v -80.896 -7.68 0
v -80.896 -7.168 0
v -81.408 -7.68 0
v -81.408 -7.168 0
v -81.92001 -7.68 0
v -81.92001 -7.168 0
v -82.43201 -7.68 0
v -82.43201 -7.168 0
v -82.944 -7.68 0
v -82.944 -7.168 0
v -83.456 -7.68 0
v -83.456 -7.168 0
v -83.968 -7.68 0
v -83.968 -7.168 0
v -84.48 -7.68 0
v -84.48 -7.168 0
v -84.992 -7.68 0
v -84.992 -7.168 0
v -85.50401 -7.68 0
v -85.50401 -7.168 0
v -86.01601 -7.68 0
v -86.01601 -7.168 0
v -86.52801 -7.68 0
v -86.52801 -7.168 0
v -87.04 -7.68 0
v -87.04 -7.168 0
v -49.152 -7.68 0
v -49.152 -7.168 0
v -49.664 -7.68 0
v -49.664 -7.168 0
v -50.176 -7.68 0
v -50.176 -7.168 0
v -50.688 -7.68 0
v -50.688 -7.168 0
v -51.2 -7.68 0
v -51.2 -7.168 0
v -51.712 -7.68 0
v -51.712 -7.168 0
v -52.224 -7.68 0
v -52.224 -7.168 0
v -52.736 -7.68 0
v -52.736 -7.168 0
v -53.248 -7.68 0
v -53.248 -7.168 0
v -53.76 -7.68 0
v -53.76 -7.168 0
v -54.272 -7.68 0
v -54.272 -7.168 0

# Texture cooridinates (Count = 4)
vt 0.0001220703 0.5001221
vt 0.4998779 0.5001221
vt 0.4998779 0.9998779
vt 0.0001220703 0.9998779

# Normal
vn 0 0 -1

# Groups (Count = 4)

g mesh_0001
f 1/1/1 2/2/1 3/3/1 4/4/1
f 5/1/1 6/2/1 2/3/1 1/4/1
f 7/1/1 8/2/1 6/3/1 5/4/1
f 9/1/1 10/2/1 8/3/1 7/4/1
f 11/1/1 12/2/1 10/3/1 9/4/1
f 13/1/1 14/2/1 12/3/1 11/4/1
f 15/1/1 16/2/1 17/3/1 18/4/1
f 19/1/1 20/2/1 14/3/1 13/4/1
f 21/1/1 22/2/1 16/3/1 15/4/1
f 23/1/1 24/2/1 20/3/1 19/4/1
f 25/1/1 26/2/1 22/3/1 21/4/1
f 27/1/1 28/2/1 24/3/1 23/4/1
f 29/1/1 30/2/1 26/3/1 25/4/1
f 31/1/1 32/2/1 28/3/1 27/4/1
f 33/1/1 34/2/1 30/3/1 29/4/1
f 35/1/1 36/2/1 37/3/1 38/4/1
f 36/1/1 39/2/1 40/3/1 37/4/1
f 39/1/1 41/2/1 42/3/1 40/4/1
f 41/1/1 43/2/1 31/3/1 42/4/1
f 43/1/1 44/2/1 32/3/1 31/4/1
f 45/1/1 46/2/1 47/3/1 48/4/1
f 49/1/1 50/2/1 51/3/1 52/4/1
f 50/1/1 53/2/1 54/3/1 51/4/1
f 53/1/1 55/2/1 56/3/1 54/4/1
f 55/1/1 57/2/1 58/3/1 56/4/1
f 59/1/1 60/2/1 34/3/1 33/4/1
f 61/1/1 62/2/1 55/3/1 53/4/1
f 62/1/1 63/2/1 57/3/1 55/4/1
f 64/1/1 65/2/1 60/3/1 59/4/1
f 66/1/1 67/2/1 68/3/1 69/4/1
f 67/1/1 70/2/1 71/3/1 68/4/1
f 72/1/1 73/2/1 74/3/1 75/4/1
f 73/1/1 76/2/1 77/3/1 74/4/1
f 78/1/1 79/2/1 62/3/1 61/4/1
f 79/1/1 80/2/1 63/3/1 62/4/1
f 81/1/1 82/2/1 65/3/1 64/4/1
f 83/1/1 84/2/1 67/3/1 66/4/1
f 84/1/1 85/2/1 70/3/1 67/4/1
f 86/1/1 87/2/1 73/3/1 72/4/1
f 87/1/1 88/2/1 76/3/1 73/4/1
f 89/1/1 90/2/1 79/3/1 78/4/1
f 90/1/1 91/2/1 80/3/1 79/4/1
f 92/1/1 93/2/1 82/3/1 81/4/1
f 93/1/1 94/2/1 95/3/1 82/4/1
f 94/1/1 96/2/1 97/3/1 95/4/1
f 96/1/1 98/2/1 99/3/1 97/4/1
f 98/1/1 100/2/1 101/3/1 99/4/1
f 100/1/1 102/2/1 103/3/1 101/4/1
f 102/1/1 104/2/1 105/3/1 103/4/1
f 104/1/1 106/2/1 107/3/1 105/4/1
f 106/1/1 108/2/1 109/3/1 107/4/1
f 108/1/1 110/2/1 111/3/1 109/4/1
f 110/1/1 112/2/1 113/3/1 111/4/1
f 112/1/1 114/2/1 115/3/1 113/4/1
f 114/1/1 116/2/1 117/3/1 115/4/1
f 116/1/1 118/2/1 119/3/1 117/4/1
f 118/1/1 120/2/1 121/3/1 119/4/1
f 120/1/1 122/2/1 123/3/1 121/4/1
f 122/1/1 124/2/1 125/3/1 123/4/1
f 124/1/1 126/2/1 127/3/1 125/4/1
f 126/1/1 128/2/1 129/3/1 127/4/1
f 128/1/1 130/2/1 131/3/1 129/4/1
f 130/1/1 132/2/1 133/3/1 131/4/1
f 132/1/1 134/2/1 135/3/1 133/4/1
f 134/1/1 136/2/1 137/3/1 135/4/1
f 136/1/1 138/2/1 139/3/1 137/4/1
f 138/1/1 140/2/1 141/3/1 139/4/1
f 140/1/1 142/2/1 143/3/1 141/4/1
f 142/1/1 144/2/1 145/3/1 143/4/1
f 144/1/1 146/2/1 147/3/1 145/4/1
f 146/1/1 148/2/1 149/3/1 147/4/1
f 148/1/1 150/2/1 151/3/1 149/4/1
f 150/1/1 152/2/1 153/3/1 151/4/1
f 152/1/1 154/2/1 155/3/1 153/4/1
f 154/1/1 156/2/1 157/3/1 155/4/1
f 156/1/1 158/2/1 159/3/1 157/4/1
f 158/1/1 160/2/1 161/3/1 159/4/1
f 160/1/1 162/2/1 163/3/1 161/4/1
f 162/1/1 164/2/1 165/3/1 163/4/1
f 164/1/1 166/2/1 167/3/1 165/4/1
f 166/1/1 168/2/1 169/3/1 167/4/1
f 168/1/1 170/2/1 171/3/1 169/4/1
f 170/1/1 172/2/1 173/3/1 171/4/1
f 172/1/1 174/2/1 175/3/1 173/4/1
f 174/1/1 176/2/1 177/3/1 175/4/1
f 176/1/1 178/2/1 179/3/1 177/4/1
f 178/1/1 180/2/1 181/3/1 179/4/1
f 180/1/1 182/2/1 183/3/1 181/4/1
f 182/1/1 184/2/1 185/3/1 183/4/1
f 184/1/1 186/2/1 187/3/1 185/4/1
f 186/1/1 188/2/1 189/3/1 187/4/1
f 188/1/1 190/2/1 191/3/1 189/4/1
f 190/1/1 192/2/1 193/3/1 191/4/1
f 192/1/1 194/2/1 195/3/1 193/4/1
f 194/1/1 196/2/1 197/3/1 195/4/1
f 196/1/1 198/2/1 199/3/1 197/4/1
f 198/1/1 200/2/1 201/3/1 199/4/1
f 200/1/1 202/2/1 203/3/1 201/4/1
f 202/1/1 204/2/1 205/3/1 203/4/1
f 204/1/1 206/2/1 207/3/1 205/4/1
f 206/1/1 208/2/1 209/3/1 207/4/1
f 208/1/1 210/2/1 211/3/1 209/4/1
f 210/1/1 212/2/1 213/3/1 211/4/1
f 212/1/1 214/2/1 215/3/1 213/4/1
f 214/1/1 216/2/1 217/3/1 215/4/1
f 216/1/1 218/2/1 219/3/1 217/4/1
f 218/1/1 220/2/1 221/3/1 219/4/1
f 220/1/1 222/2/1 223/3/1 221/4/1
f 222/1/1 224/2/1 225/3/1 223/4/1
f 224/1/1 226/2/1 227/3/1 225/4/1
f 226/1/1 228/2/1 229/3/1 227/4/1
f 228/1/1 230/2/1 231/3/1 229/4/1
f 230/1/1 232/2/1 233/3/1 231/4/1
f 232/1/1 234/2/1 235/3/1 233/4/1
f 234/1/1 236/2/1 237/3/1 235/4/1
f 236/1/1 238/2/1 239/3/1 237/4/1
f 238/1/1 240/2/1 241/3/1 239/4/1
f 240/1/1 242/2/1 243/3/1 241/4/1
f 242/1/1 244/2/1 245/3/1 243/4/1
f 244/1/1 246/2/1 247/3/1 245/4/1
f 246/1/1 248/2/1 249/3/1 247/4/1
f 248/1/1 250/2/1 251/3/1 249/4/1
f 250/1/1 252/2/1 253/3/1 251/4/1
f 252/1/1 254/2/1 83/3/1 253/4/1
f 254/1/1 255/2/1 84/3/1 83/4/1
f 255/1/1 256/2/1 85/3/1 84/4/1
f 256/1/1 257/2/1 258/3/1 85/4/1
f 257/1/1 259/2/1 260/3/1 258/4/1
f 259/1/1 261/2/1 262/3/1 260/4/1
f 261/1/1 263/2/1 264/3/1 262/4/1
f 263/1/1 265/2/1 266/3/1 264/4/1
f 265/1/1 267/2/1 268/3/1 266/4/1
f 267/1/1 269/2/1 270/3/1 268/4/1
f 269/1/1 271/2/1 272/3/1 270/4/1
f 271/1/1 273/2/1 274/3/1 272/4/1
f 273/1/1 275/2/1 276/3/1 274/4/1
f 275/1/1 277/2/1 278/3/1 276/4/1
f 279/1/1 280/2/1 281/3/1 282/4/1
f 280/1/1 283/2/1 284/3/1 281/4/1
f 283/1/1 285/2/1 286/3/1 284/4/1
f 285/1/1 287/2/1 288/3/1 286/4/1
f 287/1/1 289/2/1 290/3/1 288/4/1
f 289/1/1 291/2/1 292/3/1 290/4/1
f 291/1/1 293/2/1 294/3/1 292/4/1
f 293/1/1 295/2/1 296/3/1 294/4/1
f 295/1/1 297/2/1 298/3/1 296/4/1
f 297/1/1 299/2/1 300/3/1 298/4/1
f 299/1/1 301/2/1 302/3/1 300/4/1
f 301/1/1 303/2/1 304/3/1 302/4/1
f 303/1/1 305/2/1 306/3/1 304/4/1
f 305/1/1 307/2/1 308/3/1 306/4/1
f 307/1/1 309/2/1 310/3/1 308/4/1
f 309/1/1 311/2/1 312/3/1 310/4/1
f 311/1/1 313/2/1 86/3/1 312/4/1
f 313/1/1 314/2/1 87/3/1 86/4/1
f 314/1/1 315/2/1 88/3/1 87/4/1
f 315/1/1 316/2/1 317/3/1 88/4/1
f 316/1/1 318/2/1 319/3/1 317/4/1
f 318/1/1 320/2/1 321/3/1 319/4/1
f 320/1/1 322/2/1 323/3/1 321/4/1
f 322/1/1 324/2/1 325/3/1 323/4/1
f 324/1/1 326/2/1 327/3/1 325/4/1
f 326/1/1 328/2/1 329/3/1 327/4/1
f 328/1/1 330/2/1 331/3/1 329/4/1
f 330/1/1 332/2/1 333/3/1 331/4/1
f 332/1/1 334/2/1 335/3/1 333/4/1
f 334/1/1 336/2/1 337/3/1 335/4/1
f 336/1/1 338/2/1 339/3/1 337/4/1
f 338/1/1 340/2/1 89/3/1 339/4/1
f 340/1/1 341/2/1 90/3/1 89/4/1
f 341/1/1 342/2/1 91/3/1 90/4/1
f 342/1/1 343/2/1 344/3/1 91/4/1
f 343/1/1 345/2/1 346/3/1 344/4/1
f 345/1/1 347/2/1 348/3/1 346/4/1
f 347/1/1 349/2/1 350/3/1 348/4/1
f 349/1/1 351/2/1 352/3/1 350/4/1
f 351/1/1 353/2/1 354/3/1 352/4/1
f 353/1/1 355/2/1 356/3/1 354/4/1
f 355/1/1 357/2/1 358/3/1 356/4/1
f 357/1/1 359/2/1 360/3/1 358/4/1
f 359/1/1 361/2/1 362/3/1 360/4/1
f 361/1/1 363/2/1 364/3/1 362/4/1
f 365/1/1 366/2/1 93/3/1 92/4/1
f 367/1/1 368/2/1 182/3/1 180/4/1
f 368/1/1 369/2/1 184/3/1 182/4/1
f 370/1/1 371/2/1 303/3/1 301/4/1
f 371/1/1 372/2/1 305/3/1 303/4/1
f 373/1/1 374/2/1 366/3/1 365/4/1
f 375/1/1 376/2/1 368/3/1 367/4/1
f 376/1/1 377/2/1 369/3/1 368/4/1
f 378/1/1 379/2/1 371/3/1 370/4/1
f 379/1/1 380/2/1 372/3/1 371/4/1
f 381/1/1 382/2/1 374/3/1 373/4/1
f 383/1/1 384/2/1 376/3/1 375/4/1
f 384/1/1 385/2/1 377/3/1 376/4/1
f 386/1/1 387/2/1 382/3/1 381/4/1
f 388/1/1 389/2/1 384/3/1 383/4/1
f 389/1/1 390/2/1 385/3/1 384/4/1
f 391/1/1 392/2/1 393/3/1 394/4/1
f 395/1/1 396/2/1 387/3/1 386/4/1
f 397/1/1 398/2/1 389/3/1 388/4/1
f 398/1/1 399/2/1 390/3/1 389/4/1
f 400/1/1 401/2/1 396/3/1 395/4/1
f 402/1/1 403/2/1 398/3/1 397/4/1
f 403/1/1 404/2/1 399/3/1 398/4/1
f 405/1/1 406/2/1 401/3/1 400/4/1
f 407/1/1 408/2/1 406/3/1 405/4/1

g mesh_0002
f 363/1/1 409/2/1 410/3/1 364/4/1
f 409/1/1 411/2/1 412/3/1 410/4/1
f 411/1/1 413/2/1 414/3/1 412/4/1
f 413/1/1 415/2/1 416/3/1 414/4/1
f 415/1/1 417/2/1 418/3/1 416/4/1
f 417/1/1 419/2/1 420/3/1 418/4/1
f 419/1/1 421/2/1 422/3/1 420/4/1
f 421/1/1 423/2/1 424/3/1 422/4/1
f 423/1/1 425/2/1 426/3/1 424/4/1
f 425/1/1 427/2/1 428/3/1 426/4/1
f 427/1/1 429/2/1 430/3/1 428/4/1
f 429/1/1 431/2/1 432/3/1 430/4/1
f 431/1/1 433/2/1 434/3/1 432/4/1
f 433/1/1 435/2/1 436/3/1 434/4/1
f 435/1/1 437/2/1 438/3/1 436/4/1
f 437/1/1 439/2/1 440/3/1 438/4/1
f 439/1/1 441/2/1 442/3/1 440/4/1
f 441/1/1 443/2/1 444/3/1 442/4/1

g mesh_0003
f 277/1/1 445/2/1 446/3/1 278/4/1
f 445/1/1 447/2/1 448/3/1 446/4/1
f 447/1/1 449/2/1 450/3/1 448/4/1
f 449/1/1 451/2/1 452/3/1 450/4/1
f 451/1/1 453/2/1 454/3/1 452/4/1
f 453/1/1 455/2/1 456/3/1 454/4/1
f 455/1/1 457/2/1 458/3/1 456/4/1
f 457/1/1 459/2/1 460/3/1 458/4/1
f 459/1/1 461/2/1 462/3/1 460/4/1
f 461/1/1 463/2/1 464/3/1 462/4/1
f 463/1/1 465/2/1 466/3/1 464/4/1
f 465/1/1 279/2/1 282/3/1 466/4/1

g mesh_0004
f 1/1/1 2/2/1 3/3/1 4/4/1
f 5/1/1 6/2/1 2/3/1 1/4/1
f 7/1/1 8/2/1 6/3/1 5/4/1
f 9/1/1 10/2/1 8/3/1 7/4/1
f 11/1/1 12/2/1 10/3/1 9/4/1
f 13/1/1 14/2/1 12/3/1 11/4/1
f 15/1/1 16/2/1 17/3/1 18/4/1
f 19/1/1 20/2/1 14/3/1 13/4/1
f 21/1/1 22/2/1 16/3/1 15/4/1
f 23/1/1 24/2/1 20/3/1 19/4/1
f 25/1/1 26/2/1 22/3/1 21/4/1
f 27/1/1 28/2/1 24/3/1 23/4/1
f 29/1/1 30/2/1 26/3/1 25/4/1
f 31/1/1 32/2/1 28/3/1 27/4/1
f 33/1/1 34/2/1 30/3/1 29/4/1
f 35/1/1 36/2/1 37/3/1 38/4/1
f 36/1/1 39/2/1 40/3/1 37/4/1
f 39/1/1 41/2/1 42/3/1 40/4/1
f 41/1/1 43/2/1 31/3/1 42/4/1
f 43/1/1 44/2/1 32/3/1 31/4/1
f 45/1/1 46/2/1 47/3/1 48/4/1
f 49/1/1 50/2/1 51/3/1 52/4/1
f 50/1/1 53/2/1 54/3/1 51/4/1
f 53/1/1 55/2/1 56/3/1 54/4/1
f 55/1/1 57/2/1 58/3/1 56/4/1
f 59/1/1 60/2/1 34/3/1 33/4/1
f 61/1/1 62/2/1 55/3/1 53/4/1
f 62/1/1 63/2/1 57/3/1 55/4/1
f 64/1/1 65/2/1 60/3/1 59/4/1
f 66/1/1 67/2/1 68/3/1 69/4/1
f 67/1/1 70/2/1 71/3/1 68/4/1
f 72/1/1 73/2/1 74/3/1 75/4/1
f 73/1/1 76/2/1 77/3/1 74/4/1
f 78/1/1 79/2/1 62/3/1 61/4/1
f 79/1/1 80/2/1 63/3/1 62/4/1
f 81/1/1 82/2/1 65/3/1 64/4/1
f 83/1/1 84/2/1 67/3/1 66/4/1
f 84/1/1 85/2/1 70/3/1 67/4/1
f 86/1/1 87/2/1 73/3/1 72/4/1
f 87/1/1 88/2/1 76/3/1 73/4/1
f 89/1/1 90/2/1 79/3/1 78/4/1
f 90/1/1 91/2/1 80/3/1 79/4/1
f 92/1/1 93/2/1 82/3/1 81/4/1
f 93/1/1 94/2/1 95/3/1 82/4/1
f 94/1/1 96/2/1 97/3/1 95/4/1
f 96/1/1 98/2/1 99/3/1 97/4/1
f 98/1/1 100/2/1 101/3/1 99/4/1
f 100/1/1 102/2/1 103/3/1 101/4/1
f 102/1/1 104/2/1 105/3/1 103/4/1
f 104/1/1 106/2/1 107/3/1 105/4/1
f 106/1/1 108/2/1 109/3/1 107/4/1
f 108/1/1 110/2/1 111/3/1 109/4/1
f 110/1/1 112/2/1 113/3/1 111/4/1
f 112/1/1 114/2/1 115/3/1 113/4/1
f 114/1/1 116/2/1 117/3/1 115/4/1
f 116/1/1 118/2/1 119/3/1 117/4/1
f 118/1/1 120/2/1 121/3/1 119/4/1
f 120/1/1 122/2/1 123/3/1 121/4/1
f 122/1/1 124/2/1 125/3/1 123/4/1
f 124/1/1 126/2/1 127/3/1 125/4/1
f 126/1/1 128/2/1 129/3/1 127/4/1
f 128/1/1 130/2/1 131/3/1 129/4/1
f 130/1/1 132/2/1 133/3/1 131/4/1
f 132/1/1 134/2/1 135/3/1 133/4/1
f 134/1/1 136/2/1 137/3/1 135/4/1
f 136/1/1 138/2/1 139/3/1 137/4/1
f 138/1/1 140/2/1 141/3/1 139/4/1
f 140/1/1 142/2/1 143/3/1 141/4/1
f 142/1/1 144/2/1 145/3/1 143/4/1
f 144/1/1 146/2/1 147/3/1 145/4/1
f 146/1/1 148/2/1 149/3/1 147/4/1
f 148/1/1 150/2/1 151/3/1 149/4/1
f 150/1/1 152/2/1 153/3/1 151/4/1
f 152/1/1 154/2/1 155/3/1 153/4/1
f 154/1/1 156/2/1 157/3/1 155/4/1
f 156/1/1 158/2/1 159/3/1 157/4/1
f 158/1/1 160/2/1 161/3/1 159/4/1
f 160/1/1 162/2/1 163/3/1 161/4/1
f 162/1/1 164/2/1 165/3/1 163/4/1
f 164/1/1 166/2/1 167/3/1 165/4/1
f 166/1/1 168/2/1 169/3/1 167/4/1
f 168/1/1 170/2/1 171/3/1 169/4/1
f 170/1/1 172/2/1 173/3/1 171/4/1
f 172/1/1 174/2/1 175/3/1 173/4/1
f 174/1/1 176/2/1 177/3/1 175/4/1
f 176/1/1 178/2/1 179/3/1 177/4/1
f 178/1/1 180/2/1 181/3/1 179/4/1
f 180/1/1 182/2/1 183/3/1 181/4/1
f 182/1/1 184/2/1 185/3/1 183/4/1
f 184/1/1 186/2/1 187/3/1 185/4/1
f 186/1/1 188/2/1 189/3/1 187/4/1
f 188/1/1 190/2/1 191/3/1 189/4/1
f 190/1/1 192/2/1 193/3/1 191/4/1
f 192/1/1 194/2/1 195/3/1 193/4/1
f 194/1/1 196/2/1 197/3/1 195/4/1
f 196/1/1 198/2/1 199/3/1 197/4/1
f 198/1/1 200/2/1 201/3/1 199/4/1
f 200/1/1 202/2/1 203/3/1 201/4/1
f 202/1/1 204/2/1 205/3/1 203/4/1
f 204/1/1 206/2/1 207/3/1 205/4/1
f 206/1/1 208/2/1 209/3/1 207/4/1
f 208/1/1 210/2/1 211/3/1 209/4/1
f 210/1/1 212/2/1 213/3/1 211/4/1
f 212/1/1 214/2/1 215/3/1 213/4/1
f 214/1/1 216/2/1 217/3/1 215/4/1
f 216/1/1 218/2/1 219/3/1 217/4/1
f 218/1/1 220/2/1 221/3/1 219/4/1
f 220/1/1 222/2/1 223/3/1 221/4/1
f 222/1/1 224/2/1 225/3/1 223/4/1
f 224/1/1 226/2/1 227/3/1 225/4/1
f 226/1/1 228/2/1 229/3/1 227/4/1
f 228/1/1 230/2/1 231/3/1 229/4/1
f 230/1/1 232/2/1 233/3/1 231/4/1
f 232/1/1 234/2/1 235/3/1 233/4/1
f 234/1/1 236/2/1 237/3/1 235/4/1
f 236/1/1 238/2/1 239/3/1 237/4/1
f 238/1/1 240/2/1 241/3/1 239/4/1
f 240/1/1 242/2/1 243/3/1 241/4/1
f 242/1/1 244/2/1 245/3/1 243/4/1
f 244/1/1 246/2/1 247/3/1 245/4/1
f 246/1/1 248/2/1 249/3/1 247/4/1
f 248/1/1 250/2/1 251/3/1 249/4/1
f 250/1/1 252/2/1 253/3/1 251/4/1
f 252/1/1 254/2/1 83/3/1 253/4/1
f 254/1/1 255/2/1 84/3/1 83/4/1
f 255/1/1 256/2/1 85/3/1 84/4/1
f 256/1/1 257/2/1 258/3/1 85/4/1
f 257/1/1 259/2/1 260/3/1 258/4/1
f 259/1/1 261/2/1 262/3/1 260/4/1
f 261/1/1 263/2/1 264/3/1 262/4/1
f 263/1/1 265/2/1 266/3/1 264/4/1
f 265/1/1 267/2/1 268/3/1 266/4/1
f 267/1/1 269/2/1 270/3/1 268/4/1
f 269/1/1 271/2/1 272/3/1 270/4/1
f 271/1/1 273/2/1 274/3/1 272/4/1
f 273/1/1 275/2/1 276/3/1 274/4/1
f 275/1/1 277/2/1 278/3/1 276/4/1
f 277/1/1 445/2/1 446/3/1 278/4/1
f 445/1/1 447/2/1 448/3/1 446/4/1
f 447/1/1 449/2/1 450/3/1 448/4/1
f 449/1/1 451/2/1 452/3/1 450/4/1
f 451/1/1 453/2/1 454/3/1 452/4/1
f 453/1/1 455/2/1 456/3/1 454/4/1
f 455/1/1 457/2/1 458/3/1 456/4/1
f 457/1/1 459/2/1 460/3/1 458/4/1
f 459/1/1 461/2/1 462/3/1 460/4/1
f 461/1/1 463/2/1 464/3/1 462/4/1
f 463/1/1 465/2/1 466/3/1 464/4/1
f 465/1/1 279/2/1 282/3/1 466/4/1
f 279/1/1 280/2/1 281/3/1 282/4/1
f 280/1/1 283/2/1 284/3/1 281/4/1
f 283/1/1 285/2/1 286/3/1 284/4/1
f 285/1/1 287/2/1 288/3/1 286/4/1
f 287/1/1 289/2/1 290/3/1 288/4/1
f 289/1/1 291/2/1 292/3/1 290/4/1
f 291/1/1 293/2/1 294/3/1 292/4/1
f 293/1/1 295/2/1 296/3/1 294/4/1
f 295/1/1 297/2/1 298/3/1 296/4/1
f 297/1/1 299/2/1 300/3/1 298/4/1
f 299/1/1 301/2/1 302/3/1 300/4/1
f 301/1/1 303/2/1 304/3/1 302/4/1
f 303/1/1 305/2/1 306/3/1 304/4/1
f 305/1/1 307/2/1 308/3/1 306/4/1
f 307/1/1 309/2/1 310/3/1 308/4/1
f 309/1/1 311/2/1 312/3/1 310/4/1
f 311/1/1 313/2/1 86/3/1 312/4/1
f 313/1/1 314/2/1 87/3/1 86/4/1
f 314/1/1 315/2/1 88/3/1 87/4/1
f 315/1/1 316/2/1 317/3/1 88/4/1
f 316/1/1 318/2/1 319/3/1 317/4/1
f 318/1/1 320/2/1 321/3/1 319/4/1
f 320/1/1 322/2/1 323/3/1 321/4/1
f 322/1/1 324/2/1 325/3/1 323/4/1
f 324/1/1 326/2/1 327/3/1 325/4/1
f 326/1/1 328/2/1 329/3/1 327/4/1
f 328/1/1 330/2/1 331/3/1 329/4/1
f 330/1/1 332/2/1 333/3/1 331/4/1
f 332/1/1 334/2/1 335/3/1 333/4/1
f 334/1/1 336/2/1 337/3/1 335/4/1
f 336/1/1 338/2/1 339/3/1 337/4/1
f 338/1/1 340/2/1 89/3/1 339/4/1
f 340/1/1 341/2/1 90/3/1 89/4/1
f 341/1/1 342/2/1 91/3/1 90/4/1
f 342/1/1 343/2/1 344/3/1 91/4/1
f 343/1/1 345/2/1 346/3/1 344/4/1
f 345/1/1 347/2/1 348/3/1 346/4/1
f 347/1/1 349/2/1 350/3/1 348/4/1
f 349/1/1 351/2/1 352/3/1 350/4/1
f 351/1/1 353/2/1 354/3/1 352/4/1
f 353/1/1 355/2/1 356/3/1 354/4/1
f 355/1/1 357/2/1 358/3/1 356/4/1
f 357/1/1 359/2/1 360/3/1 358/4/1
f 359/1/1 361/2/1 362/3/1 360/4/1
f 361/1/1 363/2/1 364/3/1 362/4/1
f 363/1/1 409/2/1 410/3/1 364/4/1
f 409/1/1 411/2/1 412/3/1 410/4/1
f 411/1/1 413/2/1 414/3/1 412/4/1
f 413/1/1 415/2/1 416/3/1 414/4/1
f 415/1/1 417/2/1 418/3/1 416/4/1
f 417/1/1 419/2/1 420/3/1 418/4/1
f 419/1/1 421/2/1 422/3/1 420/4/1
f 421/1/1 423/2/1 424/3/1 422/4/1
f 423/1/1 425/2/1 426/3/1 424/4/1
f 425/1/1 427/2/1 428/3/1 426/4/1
f 427/1/1 429/2/1 430/3/1 428/4/1
f 429/1/1 431/2/1 432/3/1 430/4/1
f 431/1/1 433/2/1 434/3/1 432/4/1
f 433/1/1 435/2/1 436/3/1 434/4/1
f 435/1/1 437/2/1 438/3/1 436/4/1
f 437/1/1 439/2/1 440/3/1 438/4/1
f 439/1/1 441/2/1 442/3/1 440/4/1
f 441/1/1 443/2/1 444/3/1 442/4/1
f 365/1/1 366/2/1 93/3/1 92/4/1
f 367/1/1 368/2/1 182/3/1 180/4/1
f 368/1/1 369/2/1 184/3/1 182/4/1
f 370/1/1 371/2/1 303/3/1 301/4/1
f 371/1/1 372/2/1 305/3/1 303/4/1
f 373/1/1 374/2/1 366/3/1 365/4/1
f 375/1/1 376/2/1 368/3/1 367/4/1
f 376/1/1 377/2/1 369/3/1 368/4/1
f 378/1/1 379/2/1 371/3/1 370/4/1
f 379/1/1 380/2/1 372/3/1 371/4/1
f 381/1/1 382/2/1 374/3/1 373/4/1
f 383/1/1 384/2/1 376/3/1 375/4/1
f 384/1/1 385/2/1 377/3/1 376/4/1
f 386/1/1 387/2/1 382/3/1 381/4/1
f 388/1/1 389/2/1 384/3/1 383/4/1
f 389/1/1 390/2/1 385/3/1 384/4/1
f 391/1/1 392/2/1 393/3/1 394/4/1
f 395/1/1 396/2/1 387/3/1 386/4/1
f 397/1/1 398/2/1 389/3/1 388/4/1
f 398/1/1 399/2/1 390/3/1 389/4/1
f 400/1/1 401/2/1 396/3/1 395/4/1
f 402/1/1 403/2/1 398/3/1 397/4/1
f 403/1/1 404/2/1 399/3/1 398/4/1
f 405/1/1 406/2/1 401/3/1 400/4/1
f 407/1/1 408/2/1 406/3/1 405/4/1

